<svg xmlns="http://www.w3.org/2000/svg" viewBox="0 0 2000 2000"><path d="M1999 1173.48c0 435.45-352.99 788.49-788.49 788.49-171.89 0-330.91-54.99-460.48-148.38 13.04.65 26.23.97 39.46.97 273.85 0 515.1-139.57 656.43-351.51 195.81-143.49 322.94-375.11 322.94-636.47 0-86.2-13.83-169.17-39.41-246.79 165.2 144.51 269.56 356.91 269.56 593.69Z" style="fill:#5e6ab0"/><path d="M750.03 1813.59C332.92 1793.03 1 1448.34 1 1026.07c0-261.31 127.08-492.89 322.84-636.38-83.34 125.05-131.97 275.27-131.97 436.88 0 236.74 104.36 449.14 269.56 593.65 52.55 159.81 154.88 297.03 288.6 393.37" style="fill:#00649c"/><path d="M1249.92 385.91a792 792 0 0 0-39.41-.97c-435.5 0-788.49 353.04-788.49 788.53 0 86.2 13.83 169.12 39.41 246.74-165.2-144.51-269.56-356.91-269.56-593.65 0-161.61 48.63-311.83 131.97-436.88 130.45-95.65 291.45-152.11 465.64-152.11s330.91 54.94 460.43 148.33Z" style="fill:#015586"/><path d="M1768.85 826.57c0 261.35-127.13 492.98-322.94 636.47 83.48-125.05 132.11-275.32 132.11-436.97 0-263.61-129.39-497.03-328.1-640.16 183.27 9.03 350.09 80.62 479.52 193.87 25.58 77.62 39.41 160.59 39.41 246.79" style="fill:#3c4395"/><path d="M1729.44 579.78c-129.43-113.25-296.25-184.84-479.52-193.87-129.52-93.39-288.55-148.33-460.43-148.33s-335.2 56.47-465.64 152.11C465.21 177.7 706.47 38.04 980.36 38.04c349.3 0 645.55 227.11 749.08 541.75Z" style="fill:#63c7e7"/><path d="M1578.02 1026.07c0 161.65-48.63 311.92-132.11 436.97-141.32 211.94-382.58 351.51-656.43 351.51-13.23 0-26.41-.32-39.46-.97-133.72-96.34-236.05-233.56-288.6-393.37-25.58-77.62-39.41-160.55-39.41-246.74 0-435.5 352.99-788.53 788.49-788.53 13.23 0 26.37.32 39.41.97 198.71 143.12 328.1 376.54 328.1 640.16Z" style="fill:#2a2d65"/></svg>